<?xml version="1.0" encoding="UTF-8" standalone="no"?>
<!-- Created with Inkscape (http://www.inkscape.org/) -->

<svg
   xmlns:dc="http://purl.org/dc/elements/1.1/"
   xmlns:cc="http://creativecommons.org/ns#"
   xmlns:rdf="http://www.w3.org/1999/02/22-rdf-syntax-ns#"
   xmlns:svg="http://www.w3.org/2000/svg"
   xmlns="http://www.w3.org/2000/svg"
   xmlns:sodipodi="http://sodipodi.sourceforge.net/DTD/sodipodi-0.dtd"
   xmlns:inkscape="http://www.inkscape.org/namespaces/inkscape"
   width="210mm"
   height="297mm"
   viewBox="0 0 210 297"
   version="1.1"
   id="svg8"
   inkscape:version="0.92.2 2405546, 2018-03-11"
   sodipodi:docname="states.svg"
   inkscape:export-filename="/home/dritter/Projekte/powerlevel9k/segments/vagrant/states.png"
   inkscape:export-xdpi="123"
   inkscape:export-ydpi="123">
  <defs
     id="defs2">
    <marker
       inkscape:stockid="DotS"
       orient="auto"
       refY="0.0"
       refX="0.0"
       id="DotS"
       style="overflow:visible"
       inkscape:isstock="true">
      <path
         id="path5305"
         d="M -2.5,-1.0 C -2.5,1.7600000 -4.7400000,4.0 -7.5,4.0 C -10.260000,4.0 -12.5,1.7600000 -12.5,-1.0 C -12.5,-3.7600000 -10.260000,-6.0 -7.5,-6.0 C -4.7400000,-6.0 -2.5,-3.7600000 -2.5,-1.0 z "
         style="fill-rule:evenodd;stroke:#f3f3f3;stroke-width:1pt;stroke-opacity:1;fill:#f3f3f3;fill-opacity:1"
         transform="scale(0.2) translate(7.4, 1)" />
    </marker>
    <marker
       inkscape:stockid="DotL"
       orient="auto"
       refY="0.0"
       refX="0.0"
       id="DotL"
       style="overflow:visible"
       inkscape:isstock="true">
      <path
         id="path5299"
         d="M -2.5,-1.0 C -2.5,1.7600000 -4.7400000,4.0 -7.5,4.0 C -10.260000,4.0 -12.5,1.7600000 -12.5,-1.0 C -12.5,-3.7600000 -10.260000,-6.0 -7.5,-6.0 C -4.7400000,-6.0 -2.5,-3.7600000 -2.5,-1.0 z "
         style="fill-rule:evenodd;stroke:#f3f3f3;stroke-width:1pt;stroke-opacity:1;fill:#f3f3f3;fill-opacity:1"
         transform="scale(0.8) translate(7.4, 1)" />
    </marker>
    <marker
       inkscape:stockid="DotS"
       orient="auto"
       refY="0"
       refX="0"
       id="DotS-6"
       style="overflow:visible"
       inkscape:isstock="true">
      <path
         inkscape:connector-curvature="0"
         id="path5305-7"
         d="m -2.5,-1 c 0,2.76 -2.24,5 -5,5 -2.76,0 -5,-2.24 -5,-5 0,-2.76 2.24,-5 5,-5 2.76,0 5,2.24 5,5 z"
         style="fill:#f3f3f3;fill-opacity:1;fill-rule:evenodd;stroke:#f3f3f3;stroke-width:1.00000003pt;stroke-opacity:1"
         transform="matrix(0.2,0,0,0.2,1.48,0.2)" />
    </marker>
    <marker
       inkscape:stockid="DotS"
       orient="auto"
       refY="0"
       refX="0"
       id="DotS-62"
       style="overflow:visible"
       inkscape:isstock="true">
      <path
         inkscape:connector-curvature="0"
         id="path5305-9"
         d="m -2.5,-1 c 0,2.76 -2.24,5 -5,5 -2.76,0 -5,-2.24 -5,-5 0,-2.76 2.24,-5 5,-5 2.76,0 5,2.24 5,5 z"
         style="fill:#f3f3f3;fill-opacity:1;fill-rule:evenodd;stroke:#f3f3f3;stroke-width:1.00000003pt;stroke-opacity:1"
         transform="matrix(0.2,0,0,0.2,1.48,0.2)" />
    </marker>
    <marker
       inkscape:stockid="DotS"
       orient="auto"
       refY="0"
       refX="0"
       id="DotS-6-4"
       style="overflow:visible"
       inkscape:isstock="true">
      <path
         inkscape:connector-curvature="0"
         id="path5305-7-0"
         d="m -2.5,-1 c 0,2.76 -2.24,5 -5,5 -2.76,0 -5,-2.24 -5,-5 0,-2.76 2.24,-5 5,-5 2.76,0 5,2.24 5,5 z"
         style="fill:#f3f3f3;fill-opacity:1;fill-rule:evenodd;stroke:#f3f3f3;stroke-width:1.00000003pt;stroke-opacity:1"
         transform="matrix(0.2,0,0,0.2,1.48,0.2)" />
    </marker>
    <marker
       inkscape:stockid="DotS"
       orient="auto"
       refY="0"
       refX="0"
       id="DotS-6-4-4"
       style="overflow:visible"
       inkscape:isstock="true">
      <path
         inkscape:connector-curvature="0"
         id="path5305-7-0-4"
         d="m -2.5,-1 c 0,2.76 -2.24,5 -5,5 -2.76,0 -5,-2.24 -5,-5 0,-2.76 2.24,-5 5,-5 2.76,0 5,2.24 5,5 z"
         style="fill:#f3f3f3;fill-opacity:1;fill-rule:evenodd;stroke:#f3f3f3;stroke-width:1.00000003pt;stroke-opacity:1"
         transform="matrix(0.2,0,0,0.2,1.48,0.2)" />
    </marker>
    <marker
       inkscape:stockid="DotS"
       orient="auto"
       refY="0"
       refX="0"
       id="DotS-4"
       style="overflow:visible"
       inkscape:isstock="true">
      <path
         inkscape:connector-curvature="0"
         id="path5305-74"
         d="m -2.5,-1 c 0,2.76 -2.24,5 -5,5 -2.76,0 -5,-2.24 -5,-5 0,-2.76 2.24,-5 5,-5 2.76,0 5,2.24 5,5 z"
         style="fill:#f3f3f3;fill-opacity:1;fill-rule:evenodd;stroke:#f3f3f3;stroke-width:1.00000003pt;stroke-opacity:1"
         transform="matrix(0.2,0,0,0.2,1.48,0.2)" />
    </marker>
    <marker
       inkscape:stockid="DotS"
       orient="auto"
       refY="0"
       refX="0"
       id="DotS-4-3"
       style="overflow:visible"
       inkscape:isstock="true">
      <path
         inkscape:connector-curvature="0"
         id="path5305-74-5"
         d="m -2.5,-1 c 0,2.76 -2.24,5 -5,5 -2.76,0 -5,-2.24 -5,-5 0,-2.76 2.24,-5 5,-5 2.76,0 5,2.24 5,5 z"
         style="fill:#f3f3f3;fill-opacity:1;fill-rule:evenodd;stroke:#f3f3f3;stroke-width:1.00000003pt;stroke-opacity:1"
         transform="matrix(0.2,0,0,0.2,1.48,0.2)" />
    </marker>
    <marker
       inkscape:stockid="DotS"
       orient="auto"
       refY="0"
       refX="0"
       id="DotS-4-3-1"
       style="overflow:visible"
       inkscape:isstock="true">
      <path
         inkscape:connector-curvature="0"
         id="path5305-74-5-2"
         d="m -2.5,-1 c 0,2.76 -2.24,5 -5,5 -2.76,0 -5,-2.24 -5,-5 0,-2.76 2.24,-5 5,-5 2.76,0 5,2.24 5,5 z"
         style="fill:#f3f3f3;fill-opacity:1;fill-rule:evenodd;stroke:#f3f3f3;stroke-width:1.00000003pt;stroke-opacity:1"
         transform="matrix(0.2,0,0,0.2,1.48,0.2)" />
    </marker>
    <marker
       inkscape:stockid="DotS"
       orient="auto"
       refY="0"
       refX="0"
       id="DotS-4-3-3"
       style="overflow:visible"
       inkscape:isstock="true">
      <path
         inkscape:connector-curvature="0"
         id="path5305-74-5-6"
         d="m -2.5,-1 c 0,2.76 -2.24,5 -5,5 -2.76,0 -5,-2.24 -5,-5 0,-2.76 2.24,-5 5,-5 2.76,0 5,2.24 5,5 z"
         style="fill:#f3f3f3;fill-opacity:1;fill-rule:evenodd;stroke:#f3f3f3;stroke-width:1.00000003pt;stroke-opacity:1"
         transform="matrix(0.2,0,0,0.2,1.48,0.2)" />
    </marker>
    <marker
       inkscape:stockid="DotS"
       orient="auto"
       refY="0"
       refX="0"
       id="DotS-4-3-1-1"
       style="overflow:visible"
       inkscape:isstock="true">
      <path
         inkscape:connector-curvature="0"
         id="path5305-74-5-2-8"
         d="m -2.5,-1 c 0,2.76 -2.24,5 -5,5 -2.76,0 -5,-2.24 -5,-5 0,-2.76 2.24,-5 5,-5 2.76,0 5,2.24 5,5 z"
         style="fill:#f3f3f3;fill-opacity:1;fill-rule:evenodd;stroke:#f3f3f3;stroke-width:1.00000003pt;stroke-opacity:1"
         transform="matrix(0.2,0,0,0.2,1.48,0.2)" />
    </marker>
    <marker
       inkscape:stockid="DotS"
       orient="auto"
       refY="0"
       refX="0"
       id="DotS-4-3-2"
       style="overflow:visible"
       inkscape:isstock="true">
      <path
         inkscape:connector-curvature="0"
         id="path5305-74-5-3"
         d="m -2.5,-1 c 0,2.76 -2.24,5 -5,5 -2.76,0 -5,-2.24 -5,-5 0,-2.76 2.24,-5 5,-5 2.76,0 5,2.24 5,5 z"
         style="fill:#f3f3f3;fill-opacity:1;fill-rule:evenodd;stroke:#f3f3f3;stroke-width:1.00000003pt;stroke-opacity:1"
         transform="matrix(0.2,0,0,0.2,1.48,0.2)" />
    </marker>
    <marker
       inkscape:stockid="DotS"
       orient="auto"
       refY="0"
       refX="0"
       id="DotS-4-3-3-2"
       style="overflow:visible"
       inkscape:isstock="true">
      <path
         inkscape:connector-curvature="0"
         id="path5305-74-5-6-8"
         d="m -2.5,-1 c 0,2.76 -2.24,5 -5,5 -2.76,0 -5,-2.24 -5,-5 0,-2.76 2.24,-5 5,-5 2.76,0 5,2.24 5,5 z"
         style="fill:#f3f3f3;fill-opacity:1;fill-rule:evenodd;stroke:#f3f3f3;stroke-width:1.00000003pt;stroke-opacity:1"
         transform="matrix(0.2,0,0,0.2,1.48,0.2)" />
    </marker>
  </defs>
  <sodipodi:namedview
     id="base"
     pagecolor="#ffffff"
     bordercolor="#666666"
     borderopacity="1.0"
     inkscape:pageopacity="0.0"
     inkscape:pageshadow="2"
     inkscape:zoom="2.8"
     inkscape:cx="244.58945"
     inkscape:cy="1015.9632"
     inkscape:document-units="mm"
     inkscape:current-layer="layer1"
     showgrid="false"
     inkscape:window-width="1920"
     inkscape:window-height="1015"
     inkscape:window-x="0"
     inkscape:window-y="0"
     inkscape:window-maximized="1" />
  <metadata
     id="metadata5">
    <rdf:RDF>
      <cc:Work
         rdf:about="">
        <dc:format>image/svg+xml</dc:format>
        <dc:type
           rdf:resource="http://purl.org/dc/dcmitype/StillImage" />
        <dc:title></dc:title>
      </cc:Work>
    </rdf:RDF>
  </metadata>
  <g
     inkscape:label="Ebene 1"
     inkscape:groupmode="layer"
     id="layer1">
    <rect
       style="fill:#012b35;fill-opacity:1;stroke:none;stroke-width:0.5521363;stroke-miterlimit:4;stroke-dasharray:none;stroke-opacity:1"
       id="rect5213"
       width="210.01999"
       height="23.41931"
       x="0.13496444"
       y="-0.14548607"
       inkscape:export-xdpi="123"
       inkscape:export-ydpi="123" />
    <path
       sodipodi:nodetypes="ccccccc"
       inkscape:connector-curvature="0"
       id="path5215"
       d="M -32.091208,-88.753781 H 76.420214 l 10.58333,18.70887 -10.58333,18.70887 H -32.091208 l 10.58333,-18.70887 z"
       style="fill:#000000;fill-opacity:1;stroke:none;stroke-width:1;stroke-miterlimit:4;stroke-dasharray:none;stroke-opacity:1" />
    <path
       sodipodi:nodetypes="ccccccc"
       inkscape:connector-curvature="0"
       id="path5215-6"
       d="M 302.76265,-89.471738 H 194.25123 l -10.58333,18.70887 10.58333,18.70887 h 108.51142 l -10.58333,-18.70887 z"
       style="fill:#000000;fill-opacity:1;stroke:none;stroke-width:1;stroke-miterlimit:4;stroke-dasharray:none;stroke-opacity:1" />
    <text
       xml:space="preserve"
       style="font-style:normal;font-variant:normal;font-weight:normal;font-stretch:normal;font-size:10.58333302px;line-height:1.25;font-family:'Ubuntu Nerd Font';-inkscape-font-specification:'Ubuntu Nerd Font';letter-spacing:0px;word-spacing:0px;fill:#000000;fill-opacity:1;stroke:none;stroke-width:0.26458332"
       x="9.0714283"
       y="-35.052082"
       id="text900"><tspan
         sodipodi:role="line"
         id="tspan898"
         x="9.0714283"
         y="-35.052082"
         style="stroke-width:0.26458332">Fonts needed:</tspan><tspan
         sodipodi:role="line"
         x="9.0714283"
         y="-21.822916"
         style="stroke-width:0.26458332"
         id="tspan902">- ubuntu</tspan><tspan
         sodipodi:role="line"
         x="9.0714283"
         y="-8.59375"
         style="stroke-width:0.26458332"
         id="tspan904">- ubuntu Nerd Font</tspan></text>
    <g
       id="g2039"
       inkscape:export-xdpi="123"
       inkscape:export-ydpi="123">
      <g
         id="g1995">
        <g
           id="g1978">
          <path
             style="fill:#cc0403;fill-opacity:1;stroke:none;stroke-width:0.17603815;stroke-miterlimit:4;stroke-dasharray:none;stroke-opacity:1"
             d="m 3.502414,13.962009 h 20.845427 l 2.27445,2.697784 -2.27445,2.697783 H 3.502414 l 2.27445,-2.697783 z"
             id="path5215-3-3"
             inkscape:connector-curvature="0"
             sodipodi:nodetypes="ccccccc" />
          <text
             id="text7409"
             y="18.210968"
             x="6.7267966"
             style="font-style:normal;font-variant:normal;font-weight:normal;font-stretch:normal;font-size:3.98617601px;line-height:1.25;font-family:'Noto Sans';-inkscape-font-specification:'Noto Sans';letter-spacing:0px;word-spacing:0px;fill:#000000;fill-opacity:1;stroke:none;stroke-width:0.0996544"
             xml:space="preserve"><tspan
               style="font-style:normal;font-variant:normal;font-weight:normal;font-stretch:normal;font-size:4.16982698px;font-family:'Ubuntu Nerd Font';-inkscape-font-specification:'Ubuntu Nerd Font';stroke-width:0.0996544"
               y="18.210968"
               x="6.7267966"
               id="tspan7407"
               sodipodi:role="line">V DOWN</tspan></text>
        </g>
        <g
           id="g1984">
          <text
             id="text11915-6"
             y="17.589285"
             x="71.723953"
             style="font-style:normal;font-variant:normal;font-weight:normal;font-stretch:normal;font-size:2.27445078px;line-height:1.25;font-family:Ubuntu;-inkscape-font-specification:Ubuntu;letter-spacing:0px;word-spacing:0px;fill:#ffffff;fill-opacity:1;stroke:none;stroke-width:0.05686127"
             xml:space="preserve"><tspan
               id="tspan11917-0"
               style="font-style:normal;font-variant:normal;font-weight:normal;font-stretch:normal;font-family:Ubuntu;-inkscape-font-specification:Ubuntu;fill:#ffffff;fill-opacity:1;stroke-width:0.05686127"
               y="17.589285"
               x="71.723953"
               sodipodi:role="line">A vagrant VM is configured in the current folder, but not running.</tspan></text>
          <text
             id="text5234-5"
             y="17.455851"
             x="32.061024"
             style="font-style:normal;font-variant:normal;font-weight:bold;font-stretch:normal;font-size:2.27445078px;line-height:1.25;font-family:Ubuntu;-inkscape-font-specification:'Ubuntu Bold';letter-spacing:0px;word-spacing:0px;fill:#ffffff;fill-opacity:1;stroke:none;stroke-width:0.05686127"
             xml:space="preserve"><tspan
               style="font-style:normal;font-variant:normal;font-weight:bold;font-stretch:normal;font-size:3.03260112px;font-family:Ubuntu;-inkscape-font-specification:'Ubuntu Bold';fill:#ffffff;fill-opacity:1;stroke-width:0.05686127"
               y="17.455851"
               x="32.061024"
               id="tspan5232-4"
               sodipodi:role="line">P9K_VAGRANT_DOWN_</tspan></text>
        </g>
      </g>
      <g
         transform="translate(-31.750001,-20.6375)"
         id="g947">
        <text
           xml:space="preserve"
           style="font-style:normal;font-variant:normal;font-weight:bold;font-stretch:normal;font-size:2.27445078px;line-height:1.25;font-family:Ubuntu;-inkscape-font-specification:'Ubuntu Bold';letter-spacing:0px;word-spacing:0px;fill:#ffffff;fill-opacity:1;stroke:none;stroke-width:0.05686127"
           x="64.0233"
           y="25.804392"
           id="text5234-5-6-3"><tspan
             sodipodi:role="line"
             id="tspan5232-4-9-6"
             x="64.0233"
             y="25.804392"
             style="font-style:normal;font-variant:normal;font-weight:bold;font-stretch:normal;font-size:3.03260112px;font-family:Ubuntu;-inkscape-font-specification:'Ubuntu Bold';fill:#ffffff;fill-opacity:1;stroke-width:0.05686127">Variable Prefix:</tspan></text>
        <text
           xml:space="preserve"
           style="font-style:normal;font-variant:normal;font-weight:normal;font-stretch:normal;font-size:2.27445078px;line-height:1.25;font-family:Ubuntu;-inkscape-font-specification:Ubuntu;letter-spacing:0px;word-spacing:0px;fill:#ffffff;fill-opacity:1;stroke:none;stroke-width:0.05686127"
           x="103.54219"
           y="25.81728"
           id="text11915-6-6-7"><tspan
             sodipodi:role="line"
             x="103.54219"
             y="25.81728"
             style="font-style:normal;font-variant:normal;font-weight:normal;font-stretch:normal;font-family:Ubuntu;-inkscape-font-specification:Ubuntu;fill:#ffffff;fill-opacity:1;stroke-width:0.05686127"
             id="tspan11917-0-3-5">When:</tspan></text>
      </g>
      <g
         id="g2012">
        <g
           id="g1957">
          <path
             sodipodi:nodetypes="ccccccc"
             inkscape:connector-curvature="0"
             id="path1483"
             d="m 3.502414,7.0025141 h 13.437091 l 2.27445,2.697784 -2.27445,2.6977829 H 3.502414 l 2.27445,-2.6977829 z"
             style="fill:#19cb00;fill-opacity:1;stroke:none;stroke-width:0.17603815;stroke-miterlimit:4;stroke-dasharray:none;stroke-opacity:1" />
          <text
             xml:space="preserve"
             style="font-style:normal;font-variant:normal;font-weight:normal;font-stretch:normal;font-size:3.98617601px;line-height:1.25;font-family:'Noto Sans';-inkscape-font-specification:'Noto Sans';letter-spacing:0px;word-spacing:0px;fill:#000000;fill-opacity:1;stroke:none;stroke-width:0.0996544"
             x="6.9806895"
             y="11.251473"
             id="text1487"><tspan
               sodipodi:role="line"
               id="tspan1485"
               x="6.9806895"
               y="11.251473"
               style="font-style:normal;font-variant:normal;font-weight:normal;font-stretch:normal;font-size:4.16982698px;font-family:'Ubuntu Nerd Font';-inkscape-font-specification:'Ubuntu Nerd Font';stroke-width:0.0996544">V UP</tspan></text>
        </g>
        <g
           id="g2001">
          <text
             xml:space="preserve"
             style="font-style:normal;font-variant:normal;font-weight:normal;font-stretch:normal;font-size:2.27445078px;line-height:1.25;font-family:Ubuntu;-inkscape-font-specification:Ubuntu;letter-spacing:0px;word-spacing:0px;fill:#ffffff;fill-opacity:1;stroke:none;stroke-width:0.05686127"
             x="71.723953"
             y="10.629789"
             id="text1493"><tspan
               sodipodi:role="line"
               x="71.723953"
               y="10.629789"
               style="font-style:normal;font-variant:normal;font-weight:normal;font-stretch:normal;font-family:Ubuntu;-inkscape-font-specification:Ubuntu;fill:#ffffff;fill-opacity:1;stroke-width:0.05686127"
               id="tspan1491">A vagrant VM is running in the current folder.</tspan></text>
          <text
             xml:space="preserve"
             style="font-style:normal;font-variant:normal;font-weight:bold;font-stretch:normal;font-size:2.27445078px;line-height:1.25;font-family:Ubuntu;-inkscape-font-specification:'Ubuntu Bold';letter-spacing:0px;word-spacing:0px;fill:#ffffff;fill-opacity:1;stroke:none;stroke-width:0.05686127"
             x="32.061024"
             y="10.496355"
             id="text1497"><tspan
               sodipodi:role="line"
               id="tspan1495"
               x="32.061024"
               y="10.496355"
               style="font-style:normal;font-variant:normal;font-weight:bold;font-stretch:normal;font-size:3.03260112px;font-family:Ubuntu;-inkscape-font-specification:'Ubuntu Bold';fill:#ffffff;fill-opacity:1;stroke-width:0.05686127">P9K_VAGRANT_UP_</tspan></text>
        </g>
      </g>
    </g>
  </g>
  <g
     inkscape:groupmode="layer"
     id="layer2"
     inkscape:label="P9K_Logo" />
</svg>
